<svg xmlns="http://www.w3.org/2000/svg" width="69" height="69" viewBox="0 0 69 69">
  <g id="Group_162513" data-name="Group 162513" transform="translate(-526 -1863)">
    <circle id="Ellipse_1285" data-name="Ellipse 1285" cx="34.5" cy="34.5" r="34.5" transform="translate(526 1863)" fill="#f8f8f8"/>
    <g id="Group_162508" data-name="Group 162508" transform="translate(207 -242)">
      <path id="Path_29147" data-name="Path 29147" d="M-497.782,432.676c-.113.823-.207,1.648-.346,2.467-.1.611-.246,1.217-.407,1.815a1.241,1.241,0,0,1-1.273.972c-.1,0-.2,0-.3,0h-38.718c-1.08,0-1.415-.264-1.683-1.323a21.713,21.713,0,0,1,16.225-26.454,21.712,21.712,0,0,1,26.049,16.76c.183.882.252,1.787.376,2.68.017.124.049.247.074.37Zm-3,2.7a19.042,19.042,0,0,0-8.038-19.96,19.035,19.035,0,0,0-22.912,1.223,18.818,18.818,0,0,0-6.4,18.737Z" transform="translate(873.168 1715.381)" fill="#d82b1b"/>
      <path id="Path_29148" data-name="Path 29148" d="M-355.712,561.494a1.34,1.34,0,0,0,1.3-.759,1.167,1.167,0,0,0-.186-1.34c-.288-.327-.609-.627-.917-.936-1.025-1.028-2.045-2.061-3.081-3.078a1.264,1.264,0,0,0-2.173.539,1.2,1.2,0,0,0,.331,1.206c1.318,1.332,2.638,2.664,3.982,3.97A2.629,2.629,0,0,0-355.712,561.494Z" transform="translate(711.26 1586.489)" fill="#666"/>
      <path id="Path_29149" data-name="Path 29149" d="M-251.366,592.586c-.394,0-.789.009-1.183,0a1.261,1.261,0,0,1-1.278-1.29,1.253,1.253,0,0,1,1.276-1.247q1.183-.019,2.366,0a1.267,1.267,0,0,1,1.285,1.287,1.274,1.274,0,0,1-1.283,1.249C-250.577,592.594-250.972,592.585-251.366,592.586Z" transform="translate(618.353 1555.385)" fill="#d82b1b"/>
      <path id="Path_29150" data-name="Path 29150" d="M-358.261,464.581c0,.394.01.789,0,1.183a1.252,1.252,0,0,1-1.269,1.253,1.251,1.251,0,0,1-1.265-1.259q-.023-1.2,0-2.408a1.268,1.268,0,0,1,1.27-1.26,1.27,1.27,0,0,1,1.264,1.266C-358.25,463.764-358.26,464.173-358.261,464.581Z" transform="translate(713.225 1668.85)" fill="#ff8e00"/>
      <path id="Path_29151" data-name="Path 29151" d="M-486.269,590.068c.408,0,.817-.011,1.225,0a1.254,1.254,0,0,1,1.249,1.274,1.25,1.25,0,0,1-1.262,1.261c-.8.015-1.605.016-2.408,0a1.272,1.272,0,0,1-1.258-1.273,1.278,1.278,0,0,1,1.271-1.261C-487.058,590.058-486.663,590.068-486.269,590.068Z" transform="translate(826.659 1555.362)" fill="#0095e0"/>
      <path id="Path_29152" data-name="Path 29152" d="M-422.217,483.824a1.2,1.2,0,0,1-1.087-.614c-.418-.7-.835-1.4-1.224-2.121a1.268,1.268,0,0,1,.47-1.7,1.241,1.241,0,0,1,1.7.414c.446.716.877,1.445,1.262,2.2A1.247,1.247,0,0,1-422.217,483.824Z" transform="translate(769.867 1653.664)" fill="#ff8e00"/>
      <path id="Path_29153" data-name="Path 29153" d="M-466.98,528.534a1.238,1.238,0,0,1-1.823,1.158c-.75-.386-1.479-.815-2.2-1.26a1.244,1.244,0,0,1-.4-1.708,1.258,1.258,0,0,1,1.66-.478c.744.4,1.471.829,2.194,1.266A1.131,1.131,0,0,1-466.98,528.534Z" transform="translate(811.462 1612.083)" fill="#0095e0"/>
      <path id="Path_29154" data-name="Path 29154" d="M-268.116,528.624a1.2,1.2,0,0,1,.611-1.087c.688-.411,1.381-.816,2.083-1.2a1.266,1.266,0,0,1,1.731.447,1.252,1.252,0,0,1-.446,1.73c-.694.428-1.4.843-2.119,1.224A1.251,1.251,0,0,1-268.116,528.624Z" transform="translate(631.025 1612.03)" fill="#d82b1b"/>
      <path id="Path_29155" data-name="Path 29155" d="M-306.07,483.827a1.237,1.237,0,0,1-1.143-1.779c.39-.778.837-1.531,1.3-2.268a1.237,1.237,0,0,1,1.68-.38,1.256,1.256,0,0,1,.487,1.656c-.4.745-.824,1.473-1.263,2.194A1.169,1.169,0,0,1-306.07,483.827Z" transform="translate(665.812 1653.657)" fill="#ff8e00"/>
    </g>
  </g>
</svg>
