<svg xmlns="http://www.w3.org/2000/svg" width="69" height="69" viewBox="0 0 69 69">
  <g id="Group_162512" data-name="Group 162512" transform="translate(-138 -1863)">
    <circle id="Ellipse_1138" data-name="Ellipse 1138" cx="34.5" cy="34.5" r="34.5" transform="translate(138 1863)" fill="#f8f8f8"/>
    <g id="Group_162511" data-name="Group 162511" transform="translate(-982.34 2315.591)">
      <path id="Path_29166" data-name="Path 29166" d="M1138.92-436.287h29.03c1.96.42,2.687,1.919,2.666,3.677-.057,4.944-.02,9.89-.02,14.835v.463c.281,0,.518-.015.754,0a1.792,1.792,0,0,1,1.683,1.771q.024,2.49,0,4.981a1.818,1.818,0,0,1-1.783,1.792c-.21.007-.421,0-.654,0v.437q0,2.705,0,5.411a3.086,3.086,0,0,1-3.327,3.329h-27.592c-.119,0-.239,0-.358,0a3.06,3.06,0,0,1-2.846-2.179c-.041-.134-.089-.266-.133-.4v-31.538a3.072,3.072,0,0,1,1.078-1.825A11.574,11.574,0,0,1,1138.92-436.287Zm30.437,27.524H1143.9c-.872,0-1.744,0-2.616,0a1.207,1.207,0,0,1-1.276-1.219q-.021-3.064,0-6.128a1.194,1.194,0,0,1,1.21-1.208c.131-.007.263,0,.394,0h27.743c.007-.153.016-.258.016-.363q0-7.687,0-15.374a1.855,1.855,0,0,0-2.014-2h-27.774a1.855,1.855,0,0,0-2.025,2.027q0,15.105,0,30.21a1.857,1.857,0,0,0,2.033,2.019h27.738a1.866,1.866,0,0,0,2.042-2.05q0-2.76,0-5.519C1169.374-408.495,1169.364-408.611,1169.357-408.763Zm.617-1.221c.375,0,.707,0,1.038,0,.592,0,.8-.209.805-.793q0-2.222,0-4.444c0-.7-.173-.877-.859-.877h-26.877c-.126,0-.251.013-.367.02a1.259,1.259,0,0,0,.441,1.427,1.9,1.9,0,0,1,.767,1.677,1.843,1.843,0,0,1-.795,1.555,1.292,1.292,0,0,0-.419,1.414h3.029c0-.615-.01-1.21,0-1.8a.593.593,0,0,1,.609-.616.59.59,0,0,1,.6.617c.011.274,0,.549,0,.824,0,.329,0,.658,0,.977h1.223c0-.39-.007-.758,0-1.126a.63.63,0,0,1,.62-.688c.358,0,.592.274.6.7.005.366,0,.733,0,1.108h1.224c0-.24,0-.454,0-.668,0-.394-.014-.789.014-1.182a.584.584,0,0,1,.621-.563.586.586,0,0,1,.584.6c.011.155.005.31.006.466,0,.45,0,.9,0,1.356h1.227c0-.373-.005-.728,0-1.082.009-.457.242-.733.608-.735s.606.274.615.729c.007.355,0,.711,0,1.083h1.226c0-.19,0-.355,0-.52,0-.454-.009-.908.015-1.361a.535.535,0,0,1,.532-.53.552.552,0,0,1,.629.414,1.486,1.486,0,0,1,.046.424c.005.521,0,1.043,0,1.568h1.223c0-.29,0-.551,0-.812,0-.119,0-.239,0-.358a.612.612,0,0,1,.591-.637.609.609,0,0,1,.622.61c.019.4,0,.8,0,1.195h1.226c0-.616,0-1.2,0-1.786a.525.525,0,0,1,.424-.583.932.932,0,0,1,.634.19.77.77,0,0,1,.155.522c.019.555.007,1.112.007,1.67h1.221c0-.371,0-.727,0-1.082,0-.451.238-.734.6-.738s.611.28.615.725c0,.365,0,.73,0,1.093h1.222c0-.6-.008-1.184,0-1.766a.606.606,0,0,1,.609-.655.6.6,0,0,1,.608.65c.008.263,0,.526,0,.788,0,.329,0,.658,0,.981h1.223c0-.389-.007-.757,0-1.125a.631.631,0,0,1,.62-.69c.358,0,.593.272.6.7C1169.979-410.752,1169.974-410.385,1169.974-409.984Zm-27.524-6.092h-1.2v6.069h1.2c0-.188.014-.354,0-.518a1.677,1.677,0,0,1,.646-1.58,3.411,3.411,0,0,0,.279-.277.838.838,0,0,0-.013-1.341c-.144-.143-.281-.294-.431-.429a1.4,1.4,0,0,1-.48-1.146C1142.458-415.547,1142.451-415.8,1142.451-416.076Z" fill="#d82b1b"/>
      <path id="Path_29167" data-name="Path 29167" d="M1182.331-119.673q-6.038,0-12.077,0a1.849,1.849,0,0,1-1.87-1.172,1.841,1.841,0,0,1,1.6-2.49c.1-.007.191-.005.287-.005h24.118a1.849,1.849,0,0,1,1.941,1.37,1.806,1.806,0,0,1-1.638,2.285c-.751.032-1.5.012-2.257.013Zm0-1.223h11.9c.131,0,.264.006.394-.008a.567.567,0,0,0,.546-.522.577.577,0,0,0-.433-.653,1.658,1.658,0,0,0-.425-.037q-11.969,0-23.937,0a1.558,1.558,0,0,0-.425.035.561.561,0,0,0-.44.647.554.554,0,0,0,.534.531,3.348,3.348,0,0,0,.394.009Z" transform="translate(-28.865 -282.979)" fill="#d82b1b"/>
      <path id="Path_29168" data-name="Path 29168" d="M1240.134-400.822q-2.938,0-5.877,0a1.873,1.873,0,0,1-2.071-2.123,7.958,7.958,0,0,1,7.09-7.617,7.931,7.931,0,0,1,8.722,6.726,7.366,7.366,0,0,1,.085,1,1.846,1.846,0,0,1-1.965,2.014C1244.123-400.818,1242.128-400.823,1240.134-400.822Zm.005-1.224h2.938c.991,0,1.983,0,2.974,0,.619,0,.843-.236.806-.86a8.56,8.56,0,0,0-.119-.994,6.736,6.736,0,0,0-6.951-5.485,6.76,6.76,0,0,0-6.379,6.418c-.028.715.169.921.89.921Z" transform="translate(-86.667 -23.226)" fill="#d82b1b"/>
      <path id="Path_29169" data-name="Path 29169" d="M1412.272-378.748c.215,0,.43-.011.644,0a.589.589,0,0,1,.571.576.585.585,0,0,1-.524.622,10.634,10.634,0,0,1-1.394,0,.582.582,0,0,1-.518-.626.589.589,0,0,1,.576-.571C1411.842-378.76,1412.057-378.749,1412.272-378.748Z" transform="translate(-248.405 -52.025)" fill="#d82b1b"/>
      <path id="Path_29170" data-name="Path 29170" d="M1195.134-378.747c.215,0,.43-.011.644,0a.6.6,0,0,1,.578.573.59.59,0,0,1-.523.625,10.613,10.613,0,0,1-1.394,0,.575.575,0,0,1-.518-.623.58.58,0,0,1,.569-.574C1194.7-378.758,1194.919-378.747,1195.134-378.747Z" transform="translate(-52.066 -52.026)" fill="#d82b1b"/>
      <path id="Path_29171" data-name="Path 29171" d="M1195.123-352.063c-.215,0-.431.015-.644,0a.592.592,0,0,1-.559-.624.578.578,0,0,1,.563-.582c.429-.018.859-.017,1.288,0a.6.6,0,0,1,.585.605.616.616,0,0,1-.589.6c-.214.015-.429,0-.644,0Z" transform="translate(-52.066 -75.054)" fill="#d82b1b"/>
      <path id="Path_29172" data-name="Path 29172" d="M1412.263-352.06c-.2,0-.406.011-.609,0a.606.606,0,0,1-.6-.626.594.594,0,0,1,.6-.586c.417-.013.836-.015,1.253,0a.593.593,0,0,1,.583.6.605.605,0,0,1-.584.607C1412.694-352.048,1412.478-352.06,1412.263-352.06Z" transform="translate(-248.408 -75.055)" fill="#d82b1b"/>
      <path id="Path_29173" data-name="Path 29173" d="M1298.582-374.456a.577.577,0,0,1-.485.6.567.567,0,0,1-.685-.384c-.134-.344-.241-.7-.358-1.048-.287-.859-.58-1.716-.856-2.578a.607.607,0,0,1,.528-.855.552.552,0,0,1,.592.376c.424,1.24.831,2.486,1.242,3.73A.781.781,0,0,1,1298.582-374.456Z" transform="translate(-144.513 -52.055)" fill="#d82b1b"/>
    </g>
  </g>
</svg>
