<svg xmlns="http://www.w3.org/2000/svg" width="69" height="69" viewBox="0 0 69 69">
  <g id="Group_162520" data-name="Group 162520" transform="translate(574 -1863)">
    <circle id="Ellipse_1290" data-name="Ellipse 1290" cx="34.5" cy="34.5" r="34.5" transform="translate(-574 1863)" fill="#f8f8f8"/>
    <g id="Group_162519" data-name="Group 162519" transform="translate(637.651 1895.834)">
      <path id="Path_29185" data-name="Path 29185" d="M-1188-18.918c.262.093.534.165.785.283a3.148,3.148,0,0,1,1.781,2.761c.022.213.063.424.1.635a.721.721,0,0,0,.06.124c.624-.1,1.267-.191,1.908-.295q6.4-1.033,12.8-2.069,2.12-.343,4.239-.691c.119-.019.239-.034.358-.047a.791.791,0,0,1,.968.723q.566,3.447,1.117,6.9.948,5.886,1.894,11.773.943,5.867,1.886,11.733c.177,1.1.351,2.194.533,3.289.124.745-.1,1.075-.849,1.213-1.328.245-2.657.487-4.025.737,0,1.038,0,2.066,0,3.094a1.385,1.385,0,0,1-.092.545.861.861,0,0,1-.9.46q-4.46-.009-8.921,0c-.576,0-1.152.005-1.728,0a.818.818,0,0,1-.888-.785.814.814,0,0,1,.894-.819q4.761-.006,9.523,0h.49V-12.054h-18.656a10.9,10.9,0,0,1-.012,1.6,2.953,2.953,0,0,1-2.965,2.532,3.039,3.039,0,0,1-2.934-2.64q-.116-.75-.235-1.5h-2.253v32.7h9.581a2.922,2.922,0,0,1,.4.011.8.8,0,0,1,.7.766.8.8,0,0,1-.682.818,2.31,2.31,0,0,1-.361.012H-1193.7c-.8,0-1.057-.253-1.057-1.056q0-16.922,0-33.844c0-.714.186-.938.873-1.054.882-.148,1.765-.293,2.679-.444-.063-.435-.124-.843-.182-1.25a2.958,2.958,0,0,1,2.293-3.443.651.651,0,0,0,.135-.072Zm26.747,34.845c-1.052-6.54-2.093-13.014-3.135-19.487l-.042.007V16.507Zm-5.219-32.44-17.062,2.757.007.046h17.505Zm-20.433,1.67c-.087-.521-.136-1-.252-1.465a1.353,1.353,0,0,0-1.5-.989,1.345,1.345,0,0,0-1.171,1.325,15.45,15.45,0,0,0,.211,1.568Zm-2.344,2.775c.086.532.136,1.026.25,1.5a1.366,1.366,0,0,0,1.481,1.025,1.356,1.356,0,0,0,1.2-1.42c-.019-.369-.1-.735-.155-1.11Z" transform="translate(0)" fill="#d82b1b"/>
      <path id="Path_29186" data-name="Path 29186" d="M-1098.672,138.551c-.412,1.2-.819,2.388-1.225,3.576-.433,1.265-.868,2.529-1.293,3.8-.134.4-.345.708-.8.725s-.688-.273-.848-.666c-.46-1.126-.941-2.244-1.4-3.372a.435.435,0,0,0-.5-.336,3.125,3.125,0,0,1-.681-.02.762.762,0,0,1-.693-.8.747.747,0,0,1,.717-.77c.534-.027,1.07-.019,1.605-.006a.805.805,0,0,1,.733.592q.445,1.074.9,2.145a.672.672,0,0,0,.071.1c.089-.241.174-.461.25-.684q.884-2.58,1.766-5.16a.872.872,0,0,1,1-.728q4.659,0,9.318,0c.37,0,.742.065.863.441a1.261,1.261,0,0,1-.05.824c-.143.326-.5.347-.837.346q-4.2-.007-8.394,0Z" transform="translate(-81.508 -143.305)" fill="#d82b1b"/>
      <path id="Path_29187" data-name="Path 29187" d="M-1117.834,283.286h-8.312c-.147,0-.3,0-.441-.01a.787.787,0,0,1-.727-.73.778.778,0,0,1,.608-.831,1.873,1.873,0,0,1,.438-.036q8.473,0,16.946,0a1.77,1.77,0,0,1,.513.06.752.752,0,0,1,.525.843.766.766,0,0,1-.675.688,3.96,3.96,0,0,1-.481.013Z" transform="translate(-62.009 -276.382)" fill="#d82b1b"/>
      <path id="Path_29188" data-name="Path 29188" d="M-1035.589,324.559q.335-.963.67-1.926c.213-.608.626-.858,1.113-.675.443.166.606.617.413,1.179q-1.01,2.937-2.027,5.871c-.194.559-.6.8-1.064.648a.794.794,0,0,1-.436-1.185,3,3,0,0,0-.023-2.71c-.37-.826-.625-1.7-.927-2.561-.218-.617-.066-1.082.4-1.248.488-.172.887.077,1.107.693q.343.956.683,1.913Z" transform="translate(-144.16 -313.363)" fill="#d82b1b"/>
      <path id="Path_29189" data-name="Path 29189" d="M-986.562,189.432c-.334.441-.628.839-.931,1.23a.809.809,0,0,1-1.185.255.811.811,0,0,1-.085-1.237c.335-.452.667-.906,1.02-1.344a.319.319,0,0,0,0-.482c-.314-.383-.609-.782-.9-1.183a.794.794,0,0,1,.118-1.174.821.821,0,0,1,1.165.214c.259.324.51.654.765.981.008.01.022.014.058.036.247-.327.491-.66.745-.986a.828.828,0,0,1,1.19-.245.809.809,0,0,1,.094,1.208c-.331.454-.674.9-1.04,1.389.406.535.832,1.064,1.217,1.622a1.41,1.41,0,0,1,.263.726.7.7,0,0,1-.548.669.752.752,0,0,1-.861-.272C-985.842,190.391-986.183,189.928-986.562,189.432Z" transform="translate(-189.179 -187.802)" fill="#d82b1b"/>
      <path id="Path_29190" data-name="Path 29190" d="M-1016.031,472.962a.786.786,0,0,1-.783.8.834.834,0,0,1-.809-.789.814.814,0,0,1,.819-.812A.787.787,0,0,1-1016.031,472.962Z" transform="translate(-162.866 -451.516)" fill="#d82b1b"/>
    </g>
  </g>
</svg>
