<svg xmlns="http://www.w3.org/2000/svg" width="69" height="69" viewBox="0 0 69 69">
  <g id="Group_162522" data-name="Group 162522" transform="translate(1350 -1863)">
    <circle id="Ellipse_1138" data-name="Ellipse 1138" cx="34.5" cy="34.5" r="34.5" transform="translate(-1350 1863)" fill="#f8f8f8"/>
    <g id="Group_162521" data-name="Group 162521" transform="translate(-659.932 1391.773)">
      <path id="Path_29191" data-name="Path 29191" d="M-676.061,505.34q0-8.353,0-16.707a3.27,3.27,0,0,1,2.739-3.324,9.069,9.069,0,0,1,1.538-.063q4.126-.007,8.253,0c.422,0,.971-.086,1.054.443a1.436,1.436,0,0,1-.459.993,9.792,9.792,0,0,0-2.673,10.046,9.62,9.62,0,0,0,7.462,7.05,10,10,0,0,0,11.042-4.99,10.087,10.087,0,0,0-1.714-11.949c-.315-.315-.847-.558-.634-1.142.229-.627.808-.445,1.276-.447q4.361-.015,8.722,0a3.35,3.35,0,0,1,3.628,3.641q0,16.472,0,32.943a3.356,3.356,0,0,1-3.677,3.66q-16.472,0-32.944,0a3.349,3.349,0,0,1-3.623-3.646q0-8.253,0-16.505ZM-664.7,486.6c-.244-.015-.392-.032-.539-.032-2.437,0-4.875-.009-7.312,0a2.027,2.027,0,0,0-2.191,2.232q-.006,16.57,0,33.14a2.036,2.036,0,0,0,2.266,2.225q16.537,0,33.073,0a2.034,2.034,0,0,0,2.253-2.237q0-16.537,0-33.073a2.047,2.047,0,0,0-2.277-2.282q-3.589-.007-7.178,0c-.167,0-.333.019-.537.032A11.587,11.587,0,0,1-648.5,502.61a11.442,11.442,0,0,1-14.585.234,11.023,11.023,0,0,1-4.04-6.687A11.458,11.458,0,0,1-664.7,486.6Z" fill="#d82b1b"/>
      <path id="Path_29192" data-name="Path 29192" d="M-582.341,502.8a8.708,8.708,0,0,1-8.715-8.7,8.7,8.7,0,0,1,8.746-8.732,8.705,8.705,0,0,1,8.681,8.729A8.706,8.706,0,0,1-582.341,502.8Zm3.107-15.5-2.446-.647c0,.356.007.575,0,.794-.019.517.149,1.212-.645,1.228s-.665-.673-.677-1.2c-.005-.238,0-.476,0-.837l-2.426.665c.221.583.747,1.1.062,1.513-.724.435-.9-.365-1.309-.772l-1.77,1.707c.551.394,1.243.606.844,1.295s-.926.18-1.514-.064l-.655,2.438c.528,0,.9,0,1.281,0,.443,0,.756.194.756.661s-.312.66-.756.661h-1.3l.685,2.454c.56-.283,1.06-.723,1.473-.13.524.754-.381.918-.695,1.321l1.652,1.783c.407-.543.62-1.234,1.311-.824s.151.931-.063,1.513l2.424.661c0-.5,0-.87,0-1.244,0-.467.175-.812.683-.8.466.009.645.336.642.776,0,.375,0,.75,0,1.27l2.44-.676c-.262-.582-.736-1.078-.1-1.484.721-.46.92.308,1.336.784l1.724-1.759c-.521-.378-1.176-.577-.816-1.242.4-.741.949-.2,1.532.045l.657-2.448c-.524,0-.921.005-1.318,0-.45-.007-.8-.248-.7-.684a1.1,1.1,0,0,1,.7-.61,5.353,5.353,0,0,1,1.321-.026l-.684-2.448c-.581.274-1.077.74-1.481.1-.457-.721.314-.918.782-1.333l-1.676-1.772c-.46.516-.653,1.291-1.378.827C-579.968,488.4-579.5,487.9-579.234,487.3Z" transform="translate(-73.602 -0.125)" fill="#d82b1b"/>
      <path id="Path_29193" data-name="Path 29193" d="M-533.513,525.247c-.36-1.167-.771-2.318-1.161-3.475l-.238,0c-.39,1.16-.8,2.313-1.159,3.483a1.233,1.233,0,0,0,.561,1.457,1.229,1.229,0,0,0,1.449-.007A1.228,1.228,0,0,0-533.513,525.247Zm-1.288.894a.523.523,0,0,1-.523-.522.522.522,0,0,1,.523-.522.522.522,0,0,1,.522.522A.522.522,0,0,1-534.8,526.141Z" transform="translate(-121.154 -31.64)" fill="#d82b1b"/>
    </g>
  </g>
</svg>
