<svg xmlns="http://www.w3.org/2000/svg" width="69" height="69" viewBox="0 0 69 69">
  <g id="Group_162514" data-name="Group 162514" transform="translate(-914 -1863)">
    <circle id="Ellipse_1290" data-name="Ellipse 1290" cx="34.5" cy="34.5" r="34.5" transform="translate(914 1863)" fill="#f8f8f8"/>
    <g id="Group_162510" data-name="Group 162510" transform="translate(-61.977 1827.018)">
      <path id="Path_29163" data-name="Path 29163" d="M1032.617,103.685c0,2.465-.006,4.93,0,7.4,0,.9-.082,1.9-1.206,1.746-.445-.06-1.064-1.093-1.077-1.695-.072-3.31.03-6.624.05-9.937a2.243,2.243,0,0,1,1.972-2.44,21.271,21.271,0,0,1,9.223.029,2.173,2.173,0,0,1,1.873,2.351q.04,5.048.1,10.1c.008.855-.149,1.7-1.2,1.655-1.032-.047-1.118-.91-1.114-1.756.013-2.571.005-5.142.005-7.713l-.381-.048a21.428,21.428,0,0,0-.384,2.815c-.042,5.89-.013,11.78-.055,17.67-.007,1.022.4,2.554-1.212,2.615-1.737.065-1.4-1.483-1.409-2.59-.022-3.155.034-6.312-.05-9.465-.014-.524-.569-1.034-.874-1.55-.323.508-.913,1.01-.926,1.526-.084,3.311-.036,6.626-.044,9.939,0,1,.142,2.221-1.337,2.179-1.322-.038-1.246-1.163-1.245-2.13,0-5.89.015-11.78-.01-17.67,0-1.022-.168-2.043-.259-3.065Z" transform="translate(-24.873 -35.619)" fill="#d82b1b"/>
      <path id="Path_29164" data-name="Path 29164" d="M999.683,92.464h25.392V89.7l-2.449-.136V88.185l2.412-.115V85.354c-2.461-.4-2.461-.4-2.385-1.559l2.412-.158V81.023c-.814-.2-1.638-.372-2.43-.638-.093-.031-.013-.579-.013-1.014l2.436-.128v-2.79l-2.426-.138-.1-1.356,2.538-.163V72.229c-1.219-.967-3.428.832-4.323-1.752h4.314v-2.63c-.617-.93-2.764.7-2.471-1.725l2.466-.152V63.422c-.582-.943-2.74.721-2.471-1.712l2.462-.15V58.781l-2.417-.14-.1-1.351,2.539-.162V54.36l-2.437-.138V52.859l2.459-.155V49.863c-1.015,0-2.04.025-3.062-.007-1.052-.032-1.051-.056-.9-1.493h3.933l.195-2.007,1.33-.124V93.914h-28.6V87.775c0-3.154-.03-6.308.018-9.461a1.647,1.647,0,0,0-1.163-1.88,4.553,4.553,0,0,1-2.76-5.258,4.732,4.732,0,1,1,6.487,5.337c-.456.233-1.043.808-1.049,1.234-.068,4.73-.034,9.461-.02,14.191A2.1,2.1,0,0,0,999.683,92.464Zm-3.1-22.67c-1.458,1.913-1.365,3.557,0,4.77a3.219,3.219,0,0,0,4.507-4.582c-1.2-1.327-2.8-1.423-4.5-.078a21.29,21.29,0,0,1,2.4,1.176c.459.3,1.007.805,1.06,1.27.038.342-.683,1.1-1.026,1.075a2.094,2.094,0,0,1-1.316-1A19.563,19.563,0,0,1,996.586,69.794Z" transform="translate(0 0)" fill="#d82b1b"/>
      <path id="Path_29165" data-name="Path 29165" d="M1047.811,75.009c-.01.159-.01.474-.053.783a3.405,3.405,0,0,1-2.942,3.178c-1.4.032-2.647-1.327-2.908-3.18a7.174,7.174,0,0,1-.054-.938c-.018-2.273,1.1-3.629,2.972-3.628S1047.815,72.578,1047.811,75.009Z" transform="translate(-32.774 -17.108)" fill="#d82b1b"/>
    </g>
  </g>
</svg>
