<svg xmlns="http://www.w3.org/2000/svg" width="237.272" height="174.013" viewBox="0 0 237.272 174.013">
  <g id="Health_Plan_for_Aspiring_Individuals" data-name="Health Plan for Aspiring Individuals" transform="translate(-171.863 -4982.246)">
    <path id="Path_20455" data-name="Path 20455" d="M348.721,1231.009c-21.406,4.7-43.286.3-64.729-1.837-14.117-1.4-27.728.506-41.88,1.545-35.973,2.638-75.883-2-87.391-35.249-9.589-27.7,5.912-68.812,39.313-85.079,11.553-5.627,23.316-6.738,34.793-5.583,6.892.694,14.576,3.338,22,.552,7.831-2.935,13.625-11.09,18.918-16.962,7.88-8.745,16.2-17.911,26.766-23.82,24.242-13.559,38.656-.339,45.938,21.391,3.541,10.567,5.423,21.577,8.273,32.321,4.042,15.24,12.818,26.31,22.7,38.575,8.8,10.923,17.03,23.7,15.612,37.557-1.608,15.729-15.779,28.625-31.575,34.126a76.226,76.226,0,0,1-8.737,2.462" transform="translate(19.943 3923.162)" fill="#f7f7f7"/>
    <g id="Group_2102" data-name="Group 2102" transform="translate(241.473 5019.479)">
      <g id="Group_2101" data-name="Group 2101" transform="translate(0 0)">
        <g id="Group_3682" data-name="Group 3682" transform="translate(12.892 0)">
          <path id="Path_18334" data-name="Path 18334" d="M335.533,223.1h0a9.138,9.138,0,0,0,9.434-9.752l-1.481-21.982a6.884,6.884,0,0,0-6.636-6.446h0a6.9,6.9,0,0,0-7.076,5.977L326.8,212.727a9.136,9.136,0,0,0,8.737,10.376Z" transform="translate(-299.792 -157.305)" fill="#eacdcd"/>
          <path id="Path_18335" data-name="Path 18335" d="M344.821,219.026s-7.434,8.254-17.153-.147l.524.343c4.307,5.769,9.931,8.094,16.984,9.54h.238" transform="translate(-300.218 -172.413)" fill="#ddbcbc"/>
          <path id="Path_18336" data-name="Path 18336" d="M330.9,152.091h0A14.312,14.312,0,0,0,316.419,166.5l.124,9.337a20.354,20.354,0,0,0,2.108,8.93c2.58,5.1,6.71,7.969,12.806,7.969h0c4.457,0,7.988-1.341,10.485-4.608a20.082,20.082,0,0,0,3.945-12.5l-.122-9.124A14.779,14.779,0,0,0,330.9,152.091Z" transform="translate(-295.213 -142.701)" fill="#eacdcd"/>
          <path id="Path_18337" data-name="Path 18337" d="M323.269,235.481l.008.115a9.248,9.248,0,0,1,.016.937,9.133,9.133,0,1,1-18.231-1.052c-4.67,1.268-28.072,8.324-26.791,22.143.186,2.008.363,4.018.363,6.035v29.123h73.359V254.533S353.824,241.927,323.269,235.481Z" transform="translate(-278.22 -179.798)" fill="#da3c4a"/>
          <ellipse id="Ellipse_888" data-name="Ellipse 888" cx="1.414" cy="1.414" rx="1.414" ry="1.414" transform="translate(26.979 26.816)" fill="#0a0b0b"/>
          <path id="Path_18338" data-name="Path 18338" d="M329.713,179.283l.463-.644a6.555,6.555,0,0,0-8.186.475l.543.592A5.658,5.658,0,0,1,329.713,179.283Z" transform="translate(-297.691 -153.972)" fill="#0a0b0b"/>
          <ellipse id="Ellipse_889" data-name="Ellipse 889" cx="1.414" cy="1.414" rx="1.414" ry="1.414" transform="translate(41.677 26.816)" fill="#0a0b0b"/>
          <path id="Path_18339" data-name="Path 18339" d="M356.189,179.283l.464-.644a6.556,6.556,0,0,0-8.187.475l.543.592A5.658,5.658,0,0,1,356.189,179.283Z" transform="translate(-309.47 -153.972)" fill="#0a0b0b"/>
          <path id="Path_18340" data-name="Path 18340" d="M341.258,190s.192,6.492-.5,7.706,2.408.442,2.408.442" transform="translate(-305.996 -159.567)" fill="none" stroke="#9f9f9f" stroke-miterlimit="10" stroke-width="0.3"/>
          <path id="Path_18341" data-name="Path 18341" d="M343.312,212.886a8.473,8.473,0,0,1-7.16-.142" transform="translate(-303.992 -169.683)" fill="none" stroke="#9f9f9f" stroke-miterlimit="10" stroke-width="0.3"/>
          <g id="Group_2030" data-name="Group 2030" transform="translate(50.057 27.239)">
            <path id="Path_18342" data-name="Path 18342" d="M368.392,192.427c2.146.039,3.921-2.757,3.957-5.019s-1.717-3.143-3.811-3.164Z" transform="translate(-368.392 -184.244)" fill="#eacdcd"/>
            <path id="Path_18343" data-name="Path 18343" d="M371.338,189.063a3.453,3.453,0,0,0-1.39,2.929,2.026,2.026,0,0,1,1.35-.324" transform="translate(-369.083 -186.388)" fill="none" stroke="#9f9f9f" stroke-miterlimit="10" stroke-width="0.3"/>
          </g>
          <g id="Group_2031" data-name="Group 2031" transform="translate(17.673 27.239)">
            <path id="Path_18344" data-name="Path 18344" d="M314.014,192.427c-2.146.039-3.921-2.757-3.957-5.019s1.717-3.143,3.811-3.164Z" transform="translate(-310.056 -184.244)" fill="#eacdcd"/>
            <path id="Path_18345" data-name="Path 18345" d="M313.122,189.063a3.454,3.454,0,0,1,1.39,2.929,2.026,2.026,0,0,0-1.35-.324" transform="translate(-311.42 -186.388)" fill="none" stroke="#9f9f9f" stroke-miterlimit="10" stroke-width="0.3"/>
          </g>
          <path id="Path_18346" data-name="Path 18346" d="M312.418,162.415a10.971,10.971,0,0,0,2.462-7.012s5.582-2.571,5.876-7.2c0,0,9.4,6.538,15.205,2.718,0,0,2.864.22,2.571,2.35,0,0,1.689,10.945,2.864,9.109,0,0,1.763-1.983,1.469-9.549,0,0,3.452-1.469,1.175-4.921,0,0,.22-8.741-9.77-9.476,0,0-1.435-1.045-2.994-2.056a7.217,7.217,0,0,0-8.588.446q-.2.172-.39.361s-6.831-1.175-9.916,4.628c0,0-6.9-.086-5.362,6.789,0,0-.294,5.185,2.717,6.8Z" transform="translate(-290.933 -135.176)" fill="#0a0b0b"/>
          <line id="Line_33" data-name="Line 33" y2="37.914" transform="translate(13.784 74.61)" fill="none" stroke="#040505" stroke-miterlimit="10" stroke-width="0.3"/>
          <line id="Line_34" data-name="Line 34" y2="37.914" transform="translate(61.37 74.61)" fill="none" stroke="#040505" stroke-miterlimit="10" stroke-width="0.3"/>
          <path id="Path_20099" data-name="Path 20099" d="M0,0A20.576,20.576,0,0,0,7.215,1.719,15.251,15.251,0,0,0,13.75,0V12.891H0Z" transform="translate(42.969 76.717)" fill="#dbdbdb"/>
        </g>
        <path id="Path_18435" data-name="Path 18435" d="M233.842,734.567" transform="translate(-208.402 -632.925)" fill="#eb4b4d"/>
        <rect id="Rectangle_501" data-name="Rectangle 501" width="99.872" height="1.597" rx="0.799" transform="translate(0 112.79)" fill="#da3c4a"/>
      </g>
    </g>
  </g>
</svg>
