<svg xmlns="http://www.w3.org/2000/svg" width="69" height="69" viewBox="0 0 69 69">
  <g id="Group_162524" data-name="Group 162524" transform="translate(962 -1863)">
    <circle id="Ellipse_1285" data-name="Ellipse 1285" cx="34.5" cy="34.5" r="34.5" transform="translate(-962 1863)" fill="#f8f8f8"/>
    <g id="Group_162523" data-name="Group 162523" transform="translate(-633.738 973.422)">
      <path id="Path_29194" data-name="Path 29194" d="M-276.067,909.483v33.095a1.593,1.593,0,0,0-.064.2,3.088,3.088,0,0,1-3.184,2.671q-14.552.011-29.105-.01a3.607,3.607,0,0,1-1.461-.325,3.034,3.034,0,0,1-1.788-3q-.005-4.072,0-8.144,0-11.963,0-23.927a3.38,3.38,0,0,1,.652-2.175,3.258,3.258,0,0,1,2.732-1.244c2.193,0,4.387,0,6.58.006a.638.638,0,0,0,.582-.3,2.75,2.75,0,0,1,.744-.655,3.618,3.618,0,0,1,1.98-.227c.285,0,.411-.075.5-.36a3.432,3.432,0,0,1,1.623-2.123,14.889,14.889,0,0,1,1.9-.742h1.013a.472.472,0,0,0,.113.052,4.067,4.067,0,0,1,3.462,2.929.433.433,0,0,0,.32.224c.42.027.844,0,1.264.017a1.876,1.876,0,0,1,1.591.88.584.584,0,0,0,.576.305c2.193-.01,4.387-.006,6.58-.005a3.4,3.4,0,0,1,2.267.755A3.44,3.44,0,0,1-276.067,909.483Zm-30.487,2.255v28.11h25.367v-28.11Zm5.046-3.42h-.458q-3.143,0-6.286,0a1.508,1.508,0,0,0-1.725,1.735q0,15.976,0,31.952c0,1.215.534,1.75,1.748,1.75h28.69c1.245,0,1.771-.525,1.771-1.769q0-15.955,0-31.91c0-1.216-.536-1.757-1.744-1.758q-3.143,0-6.287,0c-.136,0-.272.014-.421.022v1.674h.495q2.532,0,5.063,0c.9,0,1.2.29,1.2,1.177q0,14.6,0,29.209c0,.9-.28,1.176-1.191,1.176H-307.11c-.88,0-1.172-.284-1.172-1.152q0-14.626,0-29.251c0-.861.3-1.157,1.174-1.158q2.553,0,5.105,0c.161,0,.322-.017.495-.026Zm1.713,1.671h11.845c0-.457.013-.89,0-1.322-.019-.482-.065-.964-.1-1.446-.471-.03-.941-.075-1.412-.087-.612-.015-1.225,0-1.865,0a3.346,3.346,0,0,0-.461-2.227,2.524,2.524,0,0,0-1.971-.977,2.633,2.633,0,0,0-1.77.553,2.832,2.832,0,0,0-.875,2.652h-2.917c-.243,0-.466.031-.468.346C-299.8,908.3-299.795,909.129-299.795,909.988Z" transform="translate(0)" fill="#d82b1b"/>
      <path id="Path_29195" data-name="Path 29195" d="M-178.171,1061.024a7.107,7.107,0,0,1-7.122-7.1,7.1,7.1,0,0,1,7.093-7.124,7.1,7.1,0,0,1,7.122,7.094A7.106,7.106,0,0,1-178.171,1061.024Zm-.015-1.7a5.4,5.4,0,0,0,5.412-5.414,5.409,5.409,0,0,0-5.412-5.416,5.409,5.409,0,0,0-5.412,5.416A5.4,5.4,0,0,0-178.186,1059.327Z" transform="translate(-115.687 -132.352)" fill="#d82b1b"/>
      <path id="Path_29196" data-name="Path 29196" d="M-143.784,1252.535q-2.593,0-5.186,0a3.418,3.418,0,0,1-.546-.032.806.806,0,0,1-.682-.792.808.808,0,0,1,.648-.819,2.121,2.121,0,0,1,.459-.05q5.312,0,10.624,0a2.2,2.2,0,0,1,.5.054.8.8,0,0,1,.615.84.8.8,0,0,1-.658.765,3.253,3.253,0,0,1-.546.033Q-141.17,1252.537-143.784,1252.535Z" transform="translate(-147.814 -319.127)" fill="#d82b1b"/>
      <path id="Path_29197" data-name="Path 29197" d="M-143.746,1299.047c1.785,0,3.569,0,5.354,0,.638,0,.988.267,1.033.754a.788.788,0,0,1-.649.891,2.674,2.674,0,0,1-.543.048q-5.228,0-10.455,0c-.794,0-1.2-.3-1.193-.869s.4-.827,1.183-.827Z" transform="translate(-147.813 -363.257)" fill="#d82b1b"/>
      <path id="Path_29198" data-name="Path 29198" d="M-202.462,1252.668c-.323,0-.648.02-.968,0a.8.8,0,0,1-.781-.783.753.753,0,0,1,.7-.845,16.574,16.574,0,0,1,2.1,0,.793.793,0,0,1,.732.829.834.834,0,0,1-.814.807c-.321.023-.646,0-.969,0Z" transform="translate(-98.368 -319.274)" fill="#d82b1b"/>
      <path id="Path_29199" data-name="Path 29199" d="M-202.461,1300.846c-.363-.022-.731-.016-1.089-.073a.771.771,0,0,1-.663-.838.767.767,0,0,1,.736-.777c.686-.03,1.376-.029,2.062,0a.8.8,0,0,1,.734.787.839.839,0,0,1-.686.835,1.05,1.05,0,0,1-.207.038c-.295,0-.59,0-.885,0Z" transform="translate(-98.367 -363.339)" fill="#d82b1b"/>
      <path id="Path_29200" data-name="Path 29200" d="M-114.532,937.643a1.343,1.343,0,0,1-1.379,1.337,1.342,1.342,0,0,1-1.321-1.352,1.365,1.365,0,0,1,1.337-1.349A1.365,1.365,0,0,1-114.532,937.643Z" transform="translate(-177.991 -31.176)" fill="#d82b1b"/>
      <path id="Path_29201" data-name="Path 29201" d="M-136.47,1103.513c1.055-1.054,2.076-2.076,3.1-3.095a3.625,3.625,0,0,1,.5-.446.806.806,0,0,1,1.042.106.836.836,0,0,1,.093,1.045,2.329,2.329,0,0,1-.3.351q-1.814,1.82-3.633,3.637c-.592.591-.992.594-1.575.015q-.553-.549-1.1-1.1c-.481-.487-.536-.989-.154-1.364s.881-.3,1.364.18C-136.914,1103.055-136.7,1103.276-136.47,1103.513Z" transform="translate(-158.296 -180.891)" fill="#d82b1b"/>
    </g>
  </g>
</svg>
